# xmcd
#
# Track frame offsets:
#	150
#	13365
#	26299
#	38119
#	52130
#	63480
#	76218
#	86981
#	98607
#	112185
#	124985
#	136610
#	149084
#	162002
#	175436
#	183879
#	191755
#	204751
#	217556
#	228714
#	240270
#	252389
#	266194
#	280658
#	292362
#
# Disc length: 4064 seconds
#
# Revision: 0
# Processed by: cddbd v1.5.1PL2 Copyright (c) Steve Scherf et al.
# Submitted via: EasyCDDAExtractor 9.0.0.1
#
DISCID=730fde19
DTITLE=Big Joe Turner - Shout, Rattle And Roll [CD2]
DYEAR=2005
DGENRE=R&B
TTITLE0=Johnson and Turner Blues
TTITLE1=Watch That Jive
TTITLE2=S.K. Blues
TTITLE3=My Gal's A Jockey
TTITLE4=I Got Love For Sale
TTITLE5=Sunday Morning Blues
TTITLE6=Mad Blues
TTITLE7=It's A Low Down Dirty Shame (Playboy Blues)
TTITLE8=I'm Still In The Dark
TTITLE9=Sally Zu-Zazz
TTITLE10=Rock Of Gibraltar Blues
TTITLE11=That's When It Really Hurts
TTITLE12=I'm In Sharp When I Hit The Coast
TTITLE13=(New) Wee Baby Blues
TTITLE14=Around The Clock Pt 1
TTITLE15=Around The Clock Pt 2
TTITLE16=Battle Of The Blues Pt 1
TTITLE17=Battle Of The Blues Pt 2
TTITLE18=Morning Glory
TTITLE19=Low Down Dog
TTITLE20=Empty Pocket Blues
TTITLE21=Back Breaking Blues
TTITLE22=Nobody In Mind
TTITLE23=Rocks In My Bed
TTITLE24=Whistle Stop Blues
EXTD=
EXTT0=
EXTT1=
EXTT2=
EXTT3=
EXTT4=
EXTT5=
EXTT6=
EXTT7=
EXTT8=
EXTT9=
EXTT10=
EXTT11=
EXTT12=
EXTT13=
EXTT14=
EXTT15=
EXTT16=
EXTT17=
EXTT18=
EXTT19=
EXTT20=
EXTT21=
EXTT22=
EXTT23=
EXTT24=
PLAYORDER=
